<svg width="22" height="17" viewBox="0 0 22 17" fill="none" xmlns="http://www.w3.org/2000/svg">
<path d="M22 7.90791C22 7.76741 21.9081 7.64699 21.7932 7.56671L11.3637 0.120425C11.157 -0.0401417 10.8354 -0.0401417 10.6286 0.120425L0.222096 7.56671C-0.0306012 7.74734 -0.0765463 8.06848 0.130206 8.28926C0.336958 8.51003 0.704518 8.55018 0.957215 8.36954L2.45043 7.30578V16.4782C2.45043 16.7591 2.70312 17 3.04771 17H18.9447C19.2663 17 19.5419 16.7792 19.5419 16.4782V7.30578L21.0352 8.36954C21.2879 8.55018 21.6554 8.51003 21.8622 8.28926C21.9541 8.1889 22 8.0484 22 7.90791Z" fill="#56A732"/>
</svg>
